<?xml version="1.0" encoding="utf-8"?>
<!-- Generator: Adobe Illustrator 18.0.0, SVG Export Plug-In . SVG Version: 6.00 Build 0)  -->
<!DOCTYPE svg PUBLIC "-//W3C//DTD SVG 1.1//EN" "http://www.w3.org/Graphics/SVG/1.1/DTD/svg11.dtd">
<svg version="1.1" xmlns="http://www.w3.org/2000/svg" xmlns:xlink="http://www.w3.org/1999/xlink" x="0px" y="0px"
	 viewBox="0 0 142.7 53.4" enable-background="new 0 0 142.7 53.4" xml:space="preserve">
<g id="Layer_3" display="none">
	<rect x="-176.2" y="-414.8" display="inline" fill="#B71C1C" width="1092.1" height="1185.1"/>
</g>
<g id="Layer_4">
	<line fill="none" stroke="#F7F5F5" stroke-width="0.576" stroke-miterlimit="10" x1="142.7" y1="46" x2="138.2" y2="50.5"/>
	<line fill="none" stroke="#F7F5F5" stroke-width="0.576" stroke-miterlimit="10" x1="138.3" y1="46" x2="133.7" y2="50.5"/>
	<line fill="none" stroke="#F7F5F5" stroke-width="0.576" stroke-miterlimit="10" x1="133.8" y1="46" x2="129.3" y2="50.5"/>
	<line fill="none" stroke="#F7F5F5" stroke-width="0.576" stroke-miterlimit="10" x1="129.3" y1="46" x2="124.8" y2="50.5"/>
	<line fill="none" stroke="#F7F5F5" stroke-width="0.576" stroke-miterlimit="10" x1="124.8" y1="46" x2="120.3" y2="50.5"/>
	<line fill="none" stroke="#F7F5F5" stroke-width="0.576" stroke-miterlimit="10" x1="120.3" y1="46" x2="115.8" y2="50.5"/>
	<line fill="none" stroke="#F7F5F5" stroke-width="0.576" stroke-miterlimit="10" x1="115.8" y1="46" x2="111.3" y2="50.5"/>
	<line fill="none" stroke="#F7F5F5" stroke-width="0.576" stroke-miterlimit="10" x1="111.3" y1="46" x2="106.8" y2="50.5"/>
	<line fill="none" stroke="#F7F5F5" stroke-width="0.576" stroke-miterlimit="10" x1="106.8" y1="46" x2="102.3" y2="50.5"/>
	<line fill="none" stroke="#F7F5F5" stroke-width="0.576" stroke-miterlimit="10" x1="102.3" y1="46" x2="97.8" y2="50.5"/>
	<line fill="none" stroke="#F7F5F5" stroke-width="0.576" stroke-miterlimit="10" x1="97.8" y1="46" x2="93.3" y2="50.5"/>
	<line fill="none" stroke="#F7F5F5" stroke-width="0.576" stroke-miterlimit="10" x1="50.4" y1="46" x2="45.9" y2="50.5"/>
	<line fill="none" stroke="#F7F5F5" stroke-width="0.576" stroke-miterlimit="10" x1="45.9" y1="46" x2="41.4" y2="50.5"/>
	<line fill="none" stroke="#F7F5F5" stroke-width="0.576" stroke-miterlimit="10" x1="41.4" y1="46" x2="36.9" y2="50.5"/>
	<line fill="none" stroke="#F7F5F5" stroke-width="0.576" stroke-miterlimit="10" x1="36.9" y1="46" x2="32.4" y2="50.5"/>
	<line fill="none" stroke="#F7F5F5" stroke-width="0.576" stroke-miterlimit="10" x1="32.5" y1="46" x2="27.9" y2="50.5"/>
	<line fill="none" stroke="#F7F5F5" stroke-width="0.576" stroke-miterlimit="10" x1="28" y1="46" x2="23.5" y2="50.5"/>
	<line fill="none" stroke="#F7F5F5" stroke-width="0.576" stroke-miterlimit="10" x1="23.5" y1="46" x2="19" y2="50.5"/>
	<line fill="none" stroke="#F7F5F5" stroke-width="0.576" stroke-miterlimit="10" x1="19" y1="46" x2="14.5" y2="50.5"/>
	<line fill="none" stroke="#F7F5F5" stroke-width="0.576" stroke-miterlimit="10" x1="14.5" y1="46" x2="10" y2="50.5"/>
	<line fill="none" stroke="#F7F5F5" stroke-width="0.576" stroke-miterlimit="10" x1="10" y1="46" x2="5.5" y2="50.5"/>
	<line fill="none" stroke="#F7F5F5" stroke-width="0.576" stroke-miterlimit="10" x1="5.5" y1="46" x2="1" y2="50.5"/>
</g>
<g id="Layer_1" display="none">
	
		<image display="inline" overflow="visible" width="157" height="58" xlink:href="CapstoneLogoSM.png"  transform="matrix(1 0 0 1 -13.8231 67.6241)">
	</image>
</g>
<g id="Layer_2">
	<g>
		<path fill="#FFFFFF" d="M14.3,37.2c-0.6,0.6-1.4,0.9-2.3,1.2c-0.9,0.2-1.9,0.3-2.9,0.3c-1.2,0-2.4-0.3-3.5-0.8
			c-1.1-0.5-2-1.4-2.9-2.4c-0.8-1.1-1.5-2.5-2-4.2C0.3,29.6,0,27.5,0,25.2c0-2.4,0.3-4.5,0.8-6.2c0.5-1.7,1.2-3.1,2.1-4.2
			c0.9-1.1,1.8-1.9,2.9-2.4c1.1-0.5,2.2-0.7,3.3-0.7c1.2,0,2.2,0.1,2.9,0.3c0.7,0.2,1.4,0.4,2,0.7l-0.6,2.8
			c-0.9-0.6-2.3-0.9-4.1-0.9c-0.8,0-1.6,0.2-2.4,0.5c-0.8,0.4-1.5,1-2.1,1.8c-0.6,0.8-1.1,2-1.5,3.3c-0.4,1.4-0.6,3.1-0.6,5.1
			c0,1.8,0.2,3.4,0.5,4.7c0.4,1.3,0.9,2.4,1.5,3.4s1.4,1.6,2.2,2c0.8,0.5,1.8,0.7,2.8,0.7c0.9,0,1.7-0.1,2.4-0.3
			c0.7-0.2,1.2-0.5,1.7-0.9L14.3,37.2z"/>
		<path fill="#FFFFFF" d="M26,31h-7.7l-2.1,7.3h-2.5l7.9-26.6h1.2l8,26.6h-2.6L26,31z M19.2,28.3h6.2l-2.3-8l-0.7-3.9h0l-0.7,4
			L19.2,28.3z"/>
		<path fill="#FFFFFF" d="M32.5,12.4c0.7-0.2,1.6-0.4,2.4-0.5s1.8-0.1,2.6-0.1c0.9,0,1.9,0.1,2.8,0.3c0.9,0.2,1.8,0.6,2.6,1.2
			c0.8,0.6,1.4,1.4,1.9,2.4c0.5,1,0.7,2.4,0.7,4c0,1.6-0.3,2.9-0.7,4c-0.5,1.1-1.1,2-1.8,2.7c-0.7,0.7-1.6,1.2-2.6,1.5
			c-1,0.3-2,0.5-3,0.5c-0.1,0-0.3,0-0.5,0c-0.2,0-0.5,0-0.7,0s-0.5,0-0.7,0c-0.3,0-0.4,0-0.5-0.1v9.9h-2.5L32.5,12.4L32.5,12.4z
			 M37.6,14.5c-0.5,0-1,0-1.5,0s-0.9,0.1-1.1,0.2v10.8c0.1,0,0.3,0.1,0.5,0.1c0.2,0,0.5,0,0.7,0c0.3,0,0.5,0,0.7,0
			c0.2,0,0.4,0,0.5,0c0.7,0,1.4-0.1,2-0.3c0.7-0.2,1.3-0.5,1.8-0.9c0.5-0.4,0.9-1,1.3-1.8c0.3-0.8,0.5-1.8,0.5-2.9
			c0-1-0.2-1.9-0.5-2.6c-0.3-0.7-0.7-1.2-1.2-1.7c-0.5-0.4-1.1-0.7-1.7-0.9C38.9,14.6,38.3,14.5,37.6,14.5z"/>
		<path fill="#FFFFFF" d="M57.6,31.6c0-1-0.3-1.9-0.7-2.6s-1.1-1.2-1.9-1.8c-0.7-0.5-1.6-1-2.4-1.5s-1.7-1-2.4-1.6
			c-0.7-0.6-1.4-1.4-1.9-2.4c-0.5-0.9-0.7-2.1-0.7-3.6c0-2,0.6-3.7,1.7-4.9c1.1-1.2,2.7-1.8,4.9-1.8c1.2,0,2.3,0.1,3.3,0.3
			s1.8,0.5,2.3,0.9L59,15.6c-0.5-0.3-1.1-0.5-2-0.8c-0.9-0.3-1.9-0.4-3-0.4c-1.3,0-2.3,0.4-2.9,1.1c-0.7,0.7-1,1.6-1,2.6
			c0,0.9,0.3,1.8,0.7,2.4c0.5,0.7,1.1,1.2,1.9,1.8c0.7,0.5,1.6,1,2.4,1.5c0.9,0.5,1.7,1.1,2.4,1.8c0.7,0.7,1.4,1.5,1.9,2.4
			c0.5,0.9,0.7,2.1,0.7,3.5c0,1.1-0.2,2.1-0.5,3c-0.3,0.9-0.8,1.7-1.4,2.3c-0.6,0.7-1.4,1.2-2.2,1.5c-0.9,0.3-1.9,0.5-3,0.5
			c-1.5,0-2.7-0.1-3.7-0.4c-1-0.3-1.8-0.6-2.3-0.9l0.8-2.8c0.5,0.3,1.1,0.6,2,0.9s1.9,0.5,3,0.5c0.7,0,1.3-0.1,1.9-0.3
			c0.6-0.2,1.1-0.4,1.5-0.8c0.4-0.4,0.7-0.8,1-1.4C57.5,33,57.6,32.4,57.6,31.6z"/>
		<path fill="#FFFFFF" d="M76.5,14.9H70v23.4h-2.5V14.9H61v-2.8h15.5L76.5,14.9L76.5,14.9z"/>
		<path fill="#FFFFFF" d="M76.2,25.2c0-4.4,0.7-7.7,2.2-10c1.5-2.3,3.6-3.5,6.3-3.5c1.5,0,2.7,0.3,3.8,0.9c1.1,0.7,2,1.6,2.7,2.7
			c0.7,1.2,1.2,2.6,1.6,4.3c0.3,1.7,0.5,3.5,0.5,5.6c0,4.4-0.7,7.7-2.2,10s-3.6,3.5-6.4,3.5c-1.5,0-2.7-0.3-3.8-0.9
			c-1.1-0.7-2-1.6-2.7-2.7c-0.7-1.2-1.2-2.6-1.6-4.3C76.4,29.1,76.2,27.2,76.2,25.2z M78.9,25.2c0,1.5,0.1,2.8,0.3,4.1
			c0.3,1.3,0.6,2.4,1.1,3.4c0.5,1,1.1,1.8,1.8,2.4c0.7,0.6,1.6,0.9,2.7,0.9c1.9,0,3.3-0.9,4.4-2.6c1-1.8,1.6-4.5,1.6-8.1
			c0-1.4-0.1-2.8-0.3-4.1c-0.3-1.3-0.6-2.4-1.1-3.5c-0.5-1-1.1-1.8-1.9-2.4c-0.7-0.6-1.6-0.9-2.7-0.9c-1.8,0-3.3,0.9-4.3,2.6
			C79.4,18.8,78.9,21.5,78.9,25.2z"/>
		<path fill="#FFFFFF" d="M100.3,21.1l-1.6-3.8h-0.1l0.3,3.8v17.1h-2.3V11.7h1.3l10,17.4l1.5,3.6h0.2l-0.3-3.6v-17h2.3v26.6h-1.3
			L100.3,21.1z"/>
		<path fill="#FFFFFF" d="M115.6,12.1H127v2.8h-8.9v8.6h8.2v2.8h-8.2v9.3h9.1v2.8h-11.5L115.6,12.1L115.6,12.1z"/>
		<path fill="#FFFFFF" d="M140,31.6c0-1-0.3-1.9-0.7-2.6s-1.1-1.2-1.9-1.8c-0.7-0.5-1.6-1-2.4-1.5c-0.9-0.5-1.7-1-2.4-1.6
			c-0.7-0.6-1.4-1.4-1.9-2.4c-0.5-0.9-0.7-2.1-0.7-3.6c0-2,0.6-3.7,1.7-4.9s2.7-1.8,4.9-1.8c1.2,0,2.3,0.1,3.3,0.3s1.8,0.5,2.3,0.9
			l-0.7,2.8c-0.5-0.3-1.1-0.5-2-0.8c-0.9-0.3-1.9-0.4-3-0.4c-1.3,0-2.3,0.4-2.9,1.1s-1,1.6-1,2.6c0,0.9,0.3,1.8,0.7,2.4
			c0.5,0.7,1.1,1.2,1.9,1.8c0.7,0.5,1.6,1,2.4,1.5c0.9,0.5,1.7,1.1,2.4,1.8c0.7,0.7,1.4,1.5,1.9,2.4s0.7,2.1,0.7,3.5
			c0,1.1-0.2,2.1-0.5,3s-0.8,1.7-1.4,2.3c-0.6,0.7-1.4,1.2-2.2,1.5c-0.9,0.3-1.9,0.5-3,0.5c-1.5,0-2.7-0.1-3.7-0.4
			c-1-0.3-1.8-0.6-2.3-0.9l0.8-2.8c0.5,0.3,1.1,0.6,2,0.9c0.9,0.3,1.9,0.5,3,0.5c0.7,0,1.3-0.1,1.9-0.3c0.6-0.2,1.1-0.4,1.5-0.8
			s0.7-0.8,1-1.4C139.9,33,140,32.4,140,31.6z"/>
	</g>
	<g>
		<g>
			<path fill="#FFFFFF" stroke="#FFFFFF" stroke-width="0.25" stroke-miterlimit="10" d="M71,4.1l-0.2,0l0-0.7
				C71,3.2,71.1,3.1,71.2,3C71.3,3,71.6,2.9,72,2.9c0.5-0.1,0.8-0.1,1-0.2c0.2,0,0.3-0.1,0.3-0.2c0-0.1,0.1-0.2,0.1-0.3
				c0-0.1,0-0.2,0-0.2c0,0-0.1-0.1-0.2-0.2l0.2-0.1c0.2,0.1,0.3,0.2,0.3,0.3c0,0.1,0.1,0.2,0.1,0.3c0,0.2,0,0.3-0.1,0.5
				c-0.1,0.1-0.3,0.3-0.4,0.3c-0.1,0-0.5,0.1-0.9,0.2c0.2,0.1,0.3,0.2,0.4,0.3s0.1,0.2,0.1,0.4c0,0.4-0.3,0.8-0.7,1.2
				c-0.5,0.4-1.2,0.6-1.9,0.6c-0.5,0-1-0.1-1.3-0.4s-0.5-0.6-0.5-1c0-0.3,0-0.5,0.2-0.7c0.1-0.2,0.3-0.4,0.4-0.5
				c0.2-0.1,0.5-0.3,1-0.4c-0.2-0.1-0.4-0.2-0.5-0.3S69.4,2.1,69.4,2c0-0.3,0.2-0.6,0.5-0.9c0.4-0.4,0.8-0.5,1.2-0.5
				c0.1,0,0.3,0,0.4,0c0.1,0,0.2,0.1,0.3,0.2c-0.1,0.3-0.1,0.6-0.2,0.9h-0.2c0-0.2,0-0.3,0-0.5c-0.1-0.1-0.2-0.2-0.3-0.2
				c-0.1,0-0.2,0-0.3,0c-0.3,0-0.5,0.1-0.7,0.3C70.1,1.3,70,1.5,70,1.7s0.1,0.5,0.3,0.6c0.2,0.2,0.4,0.2,0.8,0.2
				c0,0.1-0.1,0.3-0.2,0.4c-0.1,0-0.3,0-0.3,0c-0.3,0-0.5,0-0.7,0.2c-0.3,0.1-0.4,0.3-0.5,0.5c-0.1,0.2-0.2,0.4-0.2,0.7
				c0,0.4,0.1,0.7,0.4,0.9c0.3,0.3,0.6,0.4,1.1,0.4c0.5,0,0.9-0.1,1.2-0.4c0.3-0.2,0.5-0.6,0.5-0.9c0-0.2,0-0.4-0.2-0.5
				c-0.1-0.1-0.3-0.2-0.5-0.2c-0.1,0-0.2,0-0.3,0c-0.1,0-0.1,0.1-0.2,0.2C71.1,3.7,71,3.8,71,4.1z"/>
		</g>
		<g>
			<path fill="#FFFFFF" stroke="#FFFFFF" stroke-width="0.25" stroke-miterlimit="10" d="M4.2,5.8C4.1,5.9,3.9,6,3.6,6.1
				C3.4,6.1,3.1,6.2,2.8,6.2c-0.3,0-0.7,0-1-0.2C1.5,5.9,1.2,5.7,1,5.5C0.8,5.2,0.6,4.9,0.5,4.5C0.3,4.2,0.3,3.7,0.3,3.2
				c0-0.5,0.1-1,0.2-1.4C0.6,1.5,0.8,1.1,1,0.9c0.3-0.3,0.5-0.4,0.8-0.5s0.6-0.2,0.9-0.2c0.3,0,0.6,0,0.8,0c0.2,0,0.4,0.1,0.5,0.2
				L4,1C3.7,0.8,3.3,0.7,2.8,0.7c-0.2,0-0.5,0-0.7,0.1S1.7,1.1,1.6,1.3S1.2,1.7,1.2,2S1,2.7,1,3.2c0,0.4,0,0.7,0.2,1
				c0.1,0.3,0.3,0.5,0.4,0.7s0.4,0.3,0.6,0.5C2.4,5.5,2.7,5.6,3,5.6c0.3,0,0.5,0,0.7-0.1c0.2,0,0.3-0.1,0.5-0.2L4.2,5.8z"/>
			<path fill="#FFFFFF" stroke="#FFFFFF" stroke-width="0.25" stroke-miterlimit="10" d="M5.6,0.3c0.2,0,0.5-0.1,0.7-0.1
				c0.3,0,0.5,0,0.7,0c0.3,0,0.5,0,0.7,0.1c0.3,0,0.4,0.2,0.6,0.3C8.7,0.7,8.8,0.8,8.9,1c0.1,0.2,0.2,0.5,0.2,0.7
				c0,0.5-0.1,0.8-0.4,1.1C8.5,3.2,8.1,3.4,7.8,3.5l0.4,0.3l1.5,2.3H8.9L7.2,3.6L6.4,3.4v2.6H5.7L5.6,0.3L5.6,0.3L5.6,0.3z M7.1,0.7
				c-0.1,0-0.2,0-0.2,0c-0.1,0-0.2,0-0.2,0c-0.1,0-0.1,0-0.2,0c-0.1,0-0.1,0-0.2,0v2.2H7c0.4,0,0.7-0.1,0.9-0.3
				c0.3-0.2,0.4-0.5,0.4-0.9c0-0.3-0.1-0.5-0.3-0.7C7.9,0.8,7.5,0.7,7.1,0.7z"/>
			<path fill="#FFFFFF" stroke="#FFFFFF" stroke-width="0.25" stroke-miterlimit="10" d="M11,0.3h3.2v0.6h-2.5v1.9h2.3v0.6h-2.3v2.1
				h2.5v0.6H11C11,6.1,11,0.3,11,0.3z"/>
			<path fill="#FFFFFF" stroke="#FFFFFF" stroke-width="0.25" stroke-miterlimit="10" d="M18.6,4.5h-2.1l-0.6,1.6h-0.7l2.2-5.9h0.3
				L20,6h-0.7L18.6,4.5z M16.7,3.8h1.7L17.8,2l-0.2-0.9l0,0l-0.2,0.9L16.7,3.8z"/>
			<path fill="#FFFFFF" stroke="#FFFFFF" stroke-width="0.25" stroke-miterlimit="10" d="M24.4,0.8h-1.8V6h-0.7V0.8H20V0.2h4.3
				L24.4,0.8L24.4,0.8z"/>
			<path fill="#FFFFFF" stroke="#FFFFFF" stroke-width="0.25" stroke-miterlimit="10" d="M25.8,0.3h0.7v5.8h-0.7V0.3z"/>
			<path fill="#FFFFFF" stroke="#FFFFFF" stroke-width="0.25" stroke-miterlimit="10" d="M30,4.2l0.2,0.9l0,0l0.2-0.9l1.4-4h0.7
				l-2.2,5.9H30l-2.2-5.9h0.7L30,4.2z"/>
			<path fill="#FFFFFF" stroke="#FFFFFF" stroke-width="0.25" stroke-miterlimit="10" d="M33.6,0.3h3.2v0.6h-2.5v1.9h2.3v0.6h-2.3
				v2.1h2.5v0.6h-3.2L33.6,0.3L33.6,0.3z"/>
			<path fill="#FFFFFF" stroke="#FFFFFF" stroke-width="0.25" stroke-miterlimit="10" d="M45.6,2.2l0.1-0.9h0l-0.3,0.8l-1.5,2.6
				h-0.2L42,2.1l-0.3-0.8h-0.1l0.1,0.9v3.9h-0.6V0.3h0.5l1.8,3l0.3,0.7l0,0L44,3.3l1.8-2.9h0.5v5.8h-0.7L45.6,2.2L45.6,2.2z"/>
			<path fill="#FFFFFF" stroke="#FFFFFF" stroke-width="0.25" stroke-miterlimit="10" d="M48.1,0.3h3.2v0.6h-2.5v1.9h2.3v0.6h-2.3
				v2.1h2.5v0.6h-3.2V0.3z"/>
			<path fill="#FFFFFF" stroke="#FFFFFF" stroke-width="0.25" stroke-miterlimit="10" d="M52.9,0.3c0.1,0,0.2,0,0.3,0
				c0.1,0,0.3,0,0.4,0c0.1,0,0.3,0,0.4,0c0.1,0,0.3,0,0.4,0c0.5,0,0.9,0.1,1.2,0.2C56,0.5,56.3,0.7,56.5,1s0.4,0.6,0.5,0.9
				c0.1,0.4,0.2,0.7,0.2,1.2c0,0.4,0,0.8-0.2,1.1c-0.1,0.4-0.3,0.7-0.5,0.9c-0.3,0.3-0.5,0.5-0.9,0.7c-0.4,0.2-0.8,0.3-1.3,0.3
				c-0.1,0-0.2,0-0.3,0c-0.1,0-0.3,0-0.5,0c-0.2,0-0.3,0-0.4,0c-0.1,0-0.2,0-0.3,0V0.3L52.9,0.3L52.9,0.3z M54.5,0.8
				c-0.1,0-0.2,0-0.3,0s-0.2,0-0.3,0c-0.1,0-0.2,0-0.2,0c-0.1,0-0.1,0-0.2,0v4.7c0,0,0.1,0,0.2,0s0.2,0,0.3,0s0.2,0,0.3,0
				c0.1,0,0.1,0,0.2,0c0.4,0,0.7-0.1,1-0.2c0.3-0.1,0.5-0.3,0.6-0.5c0.2-0.2,0.3-0.5,0.3-0.8c0.1-0.3,0.1-0.6,0.1-0.9
				c0-0.3,0-0.5-0.1-0.8c0-0.3-0.2-0.5-0.3-0.7S55.8,1,55.5,0.9C55.2,0.8,54.9,0.8,54.5,0.8z"/>
			<path fill="#FFFFFF" stroke="#FFFFFF" stroke-width="0.25" stroke-miterlimit="10" d="M59,0.3h0.7v5.8H59V0.3z"/>
			<path fill="#FFFFFF" stroke="#FFFFFF" stroke-width="0.25" stroke-miterlimit="10" d="M64.4,4.5h-2.1l-0.6,1.6H61l2.2-5.9h0.3
				l2.2,5.9H65L64.4,4.5z M62.5,3.8h1.7L63.5,2l-0.2-0.9l0,0l-0.2,0.9L62.5,3.8z"/>
		</g>
		<g>
			<path fill="#FFFFFF" stroke="#FFFFFF" stroke-width="0.25" stroke-miterlimit="10" d="M76.8,0.3H80v0.6h-2.5v1.9h2.3v0.6h-2.3
				v2.1H80v0.6h-3.2L76.8,0.3L76.8,0.3z"/>
			<path fill="#FFFFFF" stroke="#FFFFFF" stroke-width="0.25" stroke-miterlimit="10" d="M82.7,2.2l-0.5-0.8l0,0l0.1,0.8v3.8h-0.7
				V0.1H82L84.8,4l0.4,0.8h0L85.2,4V0.2h0.7v5.9h-0.4L82.7,2.2z"/>
			<path fill="#FFFFFF" stroke="#FFFFFF" stroke-width="0.25" stroke-miterlimit="10" d="M91.4,0.8h-1.8V6h-0.7V0.8H87V0.2h4.3
				L91.4,0.8L91.4,0.8z"/>
			<path fill="#FFFFFF" stroke="#FFFFFF" stroke-width="0.25" stroke-miterlimit="10" d="M92.7,0.3h3.2v0.6h-2.5v1.9h2.3v0.6h-2.3
				v2.1h2.5v0.6h-3.2L92.7,0.3L92.7,0.3z"/>
			<path fill="#FFFFFF" stroke="#FFFFFF" stroke-width="0.25" stroke-miterlimit="10" d="M97.6,0.3c0.2,0,0.5-0.1,0.7-0.1
				c0.3,0,0.5,0,0.7,0c0.3,0,0.5,0,0.7,0.1c0.3,0,0.4,0.2,0.6,0.3c0.2,0.1,0.3,0.3,0.4,0.5s0.2,0.5,0.2,0.7c0,0.5-0.1,0.8-0.4,1.1
				c-0.3,0.3-0.6,0.5-0.9,0.6l0.4,0.3l1.5,2.3h-0.8l-1.6-2.5l-0.8-0.1v2.6h-0.7L97.6,0.3L97.6,0.3L97.6,0.3z M99.1,0.7
				c-0.1,0-0.2,0-0.2,0c0,0-0.2,0-0.2,0c-0.1,0-0.1,0-0.2,0c-0.1,0-0.1,0-0.2,0v2.2h0.7c0.4,0,0.7-0.1,0.9-0.3
				c0.2-0.2,0.4-0.5,0.4-0.9c0-0.3-0.1-0.5-0.3-0.7C99.7,0.8,99.4,0.7,99.1,0.7z"/>
			<path fill="#FFFFFF" stroke="#FFFFFF" stroke-width="0.25" stroke-miterlimit="10" d="M106.2,0.8h-1.8V6h-0.7V0.8h-1.8V0.2h4.3
				L106.2,0.8L106.2,0.8z"/>
			<path fill="#FFFFFF" stroke="#FFFFFF" stroke-width="0.25" stroke-miterlimit="10" d="M109.6,4.5h-2.1l-0.6,1.6h-0.7l2.2-5.9h0.3
				l2.2,5.9h-0.7L109.6,4.5z M107.7,3.8h1.7L108.8,2l-0.2-0.9l0,0l-0.2,0.9L107.7,3.8z"/>
			<path fill="#FFFFFF" stroke="#FFFFFF" stroke-width="0.25" stroke-miterlimit="10" d="M112.3,0.3h0.7v5.8h-0.7V0.3z"/>
			<path fill="#FFFFFF" stroke="#FFFFFF" stroke-width="0.25" stroke-miterlimit="10" d="M116,2.2l-0.5-0.8h0l0.1,0.8v3.8H115V0.1
				h0.4l2.8,3.9l0.4,0.8h0L118.5,4V0.2h0.7v5.9h-0.4L116,2.2z"/>
			<path fill="#FFFFFF" stroke="#FFFFFF" stroke-width="0.25" stroke-miterlimit="10" d="M125.5,2.2l0.1-0.9h0l-0.3,0.8l-1.5,2.6
				h-0.2l-1.6-2.6l-0.3-0.8h0l0.1,0.9v3.9H121V0.3h0.5l1.8,3l0.3,0.7l0,0l0.3-0.7l1.8-2.9h0.5v5.8h-0.7L125.5,2.2L125.5,2.2
				L125.5,2.2z"/>
			<path fill="#FFFFFF" stroke="#FFFFFF" stroke-width="0.25" stroke-miterlimit="10" d="M128,0.3h3.2v0.6h-2.5v1.9h2.3v0.6h-2.3
				v2.1h2.5v0.6H128V0.3z"/>
			<path fill="#FFFFFF" stroke="#FFFFFF" stroke-width="0.25" stroke-miterlimit="10" d="M133.9,2.2l-0.5-0.8h0l0.1,0.8v3.8h-0.7
				V0.1h0.4L136,4l0.4,0.8h0L136.3,4V0.2h0.7v5.9h-0.4L133.9,2.2z"/>
			<path fill="#FFFFFF" stroke="#FFFFFF" stroke-width="0.25" stroke-miterlimit="10" d="M142.6,0.8h-1.8V6h-0.7V0.8h-1.8V0.2h4.3
				V0.8z"/>
		</g>
	</g>
	<polygon fill="#3B97D3" stroke="#3B97D3" stroke-width="0.25" stroke-miterlimit="10" points="95.9,53.3 44.2,53.3 46.6,47.9 
		44.2,42.6 95.9,42.6 93.4,47.9 	"/>
	<g>
		<path fill="#FFFFFF" d="M57.1,51.8v-1.2c0.4-0.6,0.8-1.1,1.2-1.4l0.5-0.5c0.4-0.4,0.7-0.7,0.9-1.1c0.3-0.4,0.4-0.7,0.4-1.2
			c0-0.4-0.1-0.6-0.3-0.8c-0.2-0.2-0.5-0.3-0.9-0.3c-0.5,0-1,0.2-1.7,0.5v-1.1c0.7-0.3,1.3-0.4,1.9-0.4c0.7,0,1.2,0.2,1.7,0.5
			c0.4,0.4,0.6,0.9,0.6,1.5c0,0.4-0.1,0.7-0.3,1.1c-0.2,0.3-0.5,0.8-1.1,1.3l-0.4,0.4c-0.2,0.2-0.4,0.4-0.6,0.7s-0.4,0.6-0.5,0.9
			h2.9v1.2L57.1,51.8L57.1,51.8z"/>
		<path fill="#FFFFFF" d="M65.8,52c-0.5,0-1-0.2-1.4-0.5c-0.4-0.3-0.7-0.8-0.9-1.4c-0.2-0.6-0.3-1.2-0.3-1.9c0-0.7,0.1-1.3,0.3-1.9
			c0.2-0.6,0.5-1.1,0.9-1.4c0.4-0.3,0.8-0.5,1.4-0.5c0.5,0,1,0.2,1.4,0.5c0.4,0.3,0.7,0.8,0.9,1.4s0.3,1.3,0.3,1.9
			c0,0.7-0.1,1.3-0.3,1.9s-0.5,1.1-0.9,1.4C66.8,51.8,66.4,52,65.8,52z M65.8,51.1c0.4,0,0.7-0.2,0.9-0.7s0.3-1.2,0.3-2.3
			c0-0.9-0.1-1.6-0.3-2.1c-0.2-0.5-0.5-0.7-0.9-0.7c-0.4,0-0.7,0.2-0.9,0.7c-0.2,0.5-0.3,1.2-0.3,2.3c0,0.9,0.1,1.6,0.3,2.1
			C65.2,50.8,65.5,51.1,65.8,51.1z"/>
		<path fill="#FFFFFF" d="M71.7,51.8v-6.4h-0.9l0-0.7l2.2-0.2v7.4H71.7z"/>
		<path fill="#FFFFFF" d="M77.6,47.9c0.2-0.2,0.3-0.4,0.5-0.5c0.1-0.1,0.3-0.2,0.5-0.2c0.2-0.1,0.4-0.1,0.6-0.1c0.4,0,0.7,0.1,1,0.3
			c0.3,0.2,0.6,0.5,0.7,0.8c0.2,0.3,0.3,0.7,0.3,1.2c0,0.5-0.1,0.9-0.3,1.3s-0.5,0.7-0.8,0.9c-0.3,0.2-0.8,0.3-1.3,0.3
			c-0.9,0-1.5-0.3-2-1c-0.4-0.7-0.6-1.6-0.6-2.6c0-0.7,0.1-1.4,0.3-2c0.2-0.6,0.5-1.1,0.9-1.4c0.4-0.3,1-0.5,1.7-0.5
			c0.2,0,0.4,0,0.7,0c0.2,0,0.5,0.1,1,0.2v1.1c-0.6-0.3-1.1-0.4-1.6-0.4c-0.3,0-0.6,0.1-0.9,0.3c-0.2,0.2-0.4,0.5-0.6,0.9
			S77.6,47.4,77.6,47.9z M79.9,49.6c0-0.5-0.1-0.9-0.3-1.2S79.1,48,78.8,48c-0.3,0-0.6,0.1-0.8,0.4c-0.2,0.3-0.3,0.6-0.3,1
			c0,0.4,0.1,0.8,0.3,1.2c0.2,0.3,0.5,0.5,0.9,0.5c0.3,0,0.6-0.1,0.8-0.4C79.8,50.4,79.9,50.1,79.9,49.6z"/>
	</g>
</g>
</svg>
